<svg style="position: absolute; width: 0; height: 0;" width="0" height="0" version="1.1" xmlns="http://www.w3.org/2000/svg" xmlns:xlink="http://www.w3.org/1999/xlink"><defs><symbol id="uniE001" viewBox="0 -212 1024 1024"><path d="M92 634.8 q-76 54 -36 138 q12 19 29 31 l929 0 q32 -27 38 -70 q-6 -52 -40 -92 q-13 -11 -140 -94 q-127 -83 -219 -103 l1 -71 q6 -9 49 -90.5 q43 -81.5 49 -136.5 q1 -24 7 -38 q6 -12 10 -51 q-16 -13 -24 -33 q-8 -61 -38 -141 q-31 -80 -145 -87 q-43 -4 -83 12 q-122 25 -131 193 q-2 38 -10 33 q-10 -6 -16 -4 q-19 18 33 153 q26 56 58 104 q33 49 36 87 l0 67 q-9 -1 -127 46 q-118 46 -230 147 Z"></path></symbol><symbol id="uniE002" viewBox="0 -212 1024 1024"><path d="M130 804 q-111 -14 -118 -126 l0 -405 q7 -112 118 -126 l539 0 q111 14 118 126 l0 405 q-7 112 -118 126 l-539 0 ZM397 351 q-71 8 -75 79 q0 34 23 58 l0 90 q1 48 48 56 q49 -1 57 -49 l0 -99 q21 -24 21 -56 q-4 -71 -74 -79 ZM410 -87 q-150 17 -173 165 l-109 0 q11 -121 89 -200 q77 -79 190 -82 q117 8 196 86 q78 79 85 196 l-105 0 q-24 -149 -173 -165 Z"></path></symbol><symbol id="uniE003" viewBox="0 -212 1024 1024"><path d="M604 256.16 q145 -106 102 -282 q-36 -103 -127 -149 q-91 -48 -196 -17 q-123 43 -166 166 q-44 176 102 284 q-277 87 -305 378 q7 84 140 126 q134 42 309 42 q175 0 307 -42 q133 -42 140 -126 q-27 -292 -306 -380 ZM461 642.16 l-57 -56 l57 -183 l57 183 l-57 56 ZM270 47.16 q11 -148 154 -186 q147 -20 215 112 q49 140 -69 231 q-129 73 -243 -23 q-55 -55 -57 -134 ZM463 741.16 q-368 -21 -384 -103 q11 -143 107 -237 q98 -94 240 -102 l-86 287 q-4 18 9 32 l92 90 q23 18 45 0 l91 -93 q13 -13 8 -32 l-86 -283 q143 7 239 101 q97 92 108 235 q-15 81 -383 102 l0 3 Z"></path></symbol><symbol id="uniE004" viewBox="0 -212 1024 1024"><path d="M733 -172 q-29 0 -36 27 q5 30 36 35 l59 0 q53 4 60 57 l0 731 q-1 54 -53 63 l-648 0 q-63 -2 -75 -63 l0 -725 q0 -53 53 -63 l81 0 q26 -8 23 -34 q3 -22 -17 -28 l-80 0 q-103 1 -120 104 q-1 11 0 23 l0 716 q-1 111 107 132 q9 1 18 1 l645 0 q106 0 126 -104 q1 -15 -1 -29 l0 -716 q1 -107 -103 -127 q-8 -1 -16 0 l-59 0 ZM210 111 q3 29 31 32 l447 0 q29 -3 31 -33 q-4 -28 -31 -31 l-447 0 q-28 4 -31 32 ZM241 253 q-30 5 -31 34 q4 26 31 30 l447 0 q28 -4 31 -31 q-4 -29 -32 -33 l-446 0 ZM241 442 q-30 4 -31 33 q3 28 31 32 l447 0 q28 -4 31 -33 q-4 -29 -32 -32 l-446 0 ZM569 -94 q49 -15 43 -66 q-8 -36 -44 -44 l-207 0 q-49 15 -44 66 q8 35 44 44 l208 0 Z"></path></symbol><symbol id="uniE005" viewBox="0 -212 1024 1024"><path d="M365 483.16 q92 -5 152 -69 q60 -63 60 -156 l0 -237 q3 -90 -53 -153.5 q-56 -63.5 -145 -71.5 q-90 -3 -155 52 q-63 56 -71 146 q-1 13 0 27 l0 237 q-1 93 59 156 q60 64 153 69 ZM213 21.16 q5 -138 142 -161 q139 5 161 142 l0 256 q-4 138 -142 161 q-139 -5 -161 -142 q0 -10 0 -19 l0 -237 ZM687 161.16 q-28 4 -30 32 l0 75 q0 128 -82 216 q-83 87 -210 95 q-128 -8 -211 -95 q-82 -88 -82 -216 l0 -75 q-3 -28 -30 -30 q-28 2 -30 30 l0 75 q0 145 89 249 q89 103 233 124 l0 99 l-80 0 q-30 4 -30 34 q3 26 30 30 l221 0 q30 -4 31 -34 q-4 -27 -31 -30 l-80 0 l0 -99 q143 -21 233 -124 q89 -104 90 -249 l0 -75 q-3 -28 -31 -32 Z"></path></symbol><symbol id="uniE006" viewBox="0 -212 1024 1024"><path d="M892 50 l-366 173 l-365 -173 l365 -174 l366 174 ZM526 -204 q-5 0 -11 2 l-478 228 q-20 12 -12 34 q4 8 12 12 l478 228 q6 2 11 2 q6 0 11 -2 l478 -228 q21 -12 13 -34 q-4 -8 -13 -12 l-478 -228 q-5 -2 -11 -2 ZM50 334 q-29 -16 -19 -49 q17 -29 49 -18 l446 210 l446 -210 q32 -12 48 17 q12 34 -17 50 l-477 225 l-476 -225 ZM50 594 q-29 -17 -19 -49 q16 -30 48 -19 l447 197 l447 -197 q32 -11 47 18 l2 1 q10 32 -20 49 l-476 210 l-476 -210 Z"></path></symbol><symbol id="uniE007" viewBox="0 -212 1024 1024"><path d="M119 469 q-37 4 -40 42 l0 252 q3 37 40 41 q37 -4 40 -41 l0 -252 q-2 -38 -40 -42 ZM443 175 q-37 4 -40 42 l0 546 q4 37 40 41 q37 -4 40 -41 l0 -546 q-3 -38 -40 -42 ZM767 469 q-38 4 -41 42 l0 252 q4 37 41 41 q37 -4 41 -41 l0 -252 q-3 -38 -41 -42 ZM1091 175 q-38 4 -41 42 l0 546 q4 37 41 41 q37 -4 40 -41 l0 -546 q-2 -38 -40 -42 ZM1091 -203 q-73 5 -81 78 q0 14 4 26 l-227 237 q-18 -9 -37 -1 l-229 -240 q3 -7 3 -16 q-4 -74 -78 -85 q-74 5 -84 79 l0 6 q0 10 4 20 l-227 236 q-10 -3 -20 -4 q-85 -2 -101 80 q-2 84 80 102 q84 2 102 -81 q2 -20 -4 -37 l227 -237 q10 4 20 4 q10 0 19 -4 l228 238 q-3 8 -4 18 q3 75 76 87 q75 -3 87 -76 q1 -16 -4 -30 l226 -237 q10 4 21 4 q75 -11 77 -88 q-8 -69 -78 -79 Z"></path></symbol><symbol id="uniE008" viewBox="0 -212 1024 1024"><path d="M583 48 q-63 -52 -126 0 l0 189 l-189 0 q-51 63 0 126 l189 0 l0 189 q63 52 126 0 l0 -189 l189 0 q30 -25 25 -63 q5 -38 -25 -63 l-189 0 l0 -189 ZM16 300 q5 -215 147 -356 q142 -143 357 -148 q214 5 356 148 q143 141 148 356 q-5 215 -147.5 357 q-142.5 142 -356.5 147 q-215 -5 -357 -147 q-142 -142 -147 -357 Z"></path></symbol><symbol id="uniE009" viewBox="0 -212 1024 1024"><path d="M1052 310 q-38 3 -42 39 l0 321 q-5 49 -56 53 l-800 0 q-50 -4 -55 -53 l0 -740 q5 -49 55 -53 l351 0 q37 -3 41 -41 q-3 -37 -41 -40 l-351 0 q-125 10 -137 134 l0 740 q12 123 136 134 l801 0 q125 -11 138 -134 l0 -320 q-3 -36 -40 -40 ZM218 509 q93 -97 205 -193 q113 -98 279 -97 q27 3 30 30 l0 77 q3 28 30 29 q11 0 18 -7 l296 -234 q19 -18 6 -40 l-6 -5 l-295 -259 q-23 -15 -43 5 q-5 7 -6 17 l0 78 q-2 25 -25 30 q-289 90 -393 306 q-104 216 -96 263 Z"></path></symbol><symbol id="uniE00A" viewBox="0 -212 1024 1024"><path d="M583 48 q-63 -57 -126 0 l0 189 l-189 0 q-57 63 0 126 l189 0 l0 189 q63 57 126 0 l0 -189 l189 0 q57 -63 0 -126 l-189 0 l0 -189 ZM520 -204 q-214 6 -357 148 q-141 142 -147 356 q6 214 147 356 q143 142 357 148 q213 -6 356 -148 q142 -142 148 -356 q-6 -214 -148 -356 q-143 -142 -356 -148 ZM520 728 q-180 -4 -301 -124 q-123 -120 -127 -304 q3 -180 124 -301 q120 -122 304 -127 q180 4 301 124 q122 120 127 304 q-5 180 -127 301 q-121 122 -301 127 Z"></path></symbol><symbol id="uniE00B" viewBox="0 -212 1024 1024"><path d="M520 -204 q-214 6 -357 148 q-141 142 -147 356 q6 214 147 356 q143 142 357 148 q213 -6 356 -148 q142 -142 148 -356 q-6 -214 -148 -356 q-143 -142 -356 -148 ZM583 363 l0 189 q-63 57 -126 0 l0 -189 l-189 0 q-57 -63 0 -126 l189 0 l0 -189 q63 -57 126 0 l0 189 l189 0 q57 63 0 126 l-189 0 Z"></path></symbol><symbol id="uniE00C" viewBox="0 -212 1024 1024"><path d="M143 613 q-38 6 -58 -26 l0 -228 q2 -18 13 -26 l548 -528 q25 -18 51 0 l215 229 q20 26 0 52 l-546 527 l-223 0 ZM837 54 l-166 -172 l-509 490 l0 178 l166 0 l509 -496 ZM16 740 l1017 0 l0 64 l-1017 0 l0 -64 Z"></path></symbol><symbol id="uniE00D" viewBox="0 -212 1024 1024"><path d="M85 359 q2 -18 13 -26 l548 -528 q25 -18 51 0 l215 229 q20 26 0 52 l-546 527 q-21 9 -32 0 l-191 0 q-38 8 -58 -32 l0 -222 ZM16 740 l1017 0 l0 64 l-1017 0 l0 -64 Z"></path></symbol><symbol id="uniE00E" viewBox="0 -212 1024 1024"><path d="M142 741 q3 60 63 63 l693 0 q60 -3 63 -63 l0 -819 l-819 0 l0 819 ZM205 741 l0 -756 l693 0 l0 756 l-693 0 ZM47 -78 q-29 2 -31 31 q2 30 31 32 l1008 0 q30 -2 32 -32 q-2 -29 -32 -31 l-1008 0 ZM362 111 q-29 2 -31 31 l0 441 q2 30 31 32 q30 -2 32 -32 l0 -441 q-2 -29 -32 -31 ZM740 111 q-29 2 -31 31 l0 441 q2 30 31 32 q30 -2 32 -32 l0 -441 q-2 -29 -32 -31 ZM337 -204 q-59 3 -63 63 l0 126 l561 0 l0 -126 q-3 -60 -63 -63 l-435 0 ZM551 111 q-29 2 -31 31 l0 441 q2 30 31 32 q30 -2 32 -32 l0 -441 q-2 -29 -32 -31 ZM740 111 q-29 2 -31 31 l0 441 q2 30 31 32 q30 -2 32 -32 l0 -441 q-2 -29 -32 -31 ZM337 -141 l435 0 l0 63 l-435 0 l0 -63 Z"></path></symbol><symbol id="uniE00F" viewBox="0 -212 1024 1024"><path d="M835 -78 l0 -63 q-3 -60 -63 -63 l-435 0 q-59 3 -63 63 l0 63 l-227 0 q-29 2 -31 31 q2 30 31 32 l95 0 l0 756 q3 60 63 63 l693 0 q60 -3 63 -63 l0 -756 l94 0 q30 -2 32 -32 q-2 -29 -32 -31 l-220 0 ZM394 583 q-2 30 -32 32 q-29 -2 -31 -32 l0 -441 q2 -29 31 -31 q30 2 32 31 l0 441 ZM583 583 q-2 30 -32 32 q-29 -2 -31 -32 l0 -441 q2 -29 31 -31 q30 2 32 31 l0 441 ZM772 583 q-2 30 -32 32 q-29 -2 -31 -32 l0 -441 q2 -29 31 -31 q30 2 32 31 l0 441 Z"></path></symbol><symbol id="uniE010" viewBox="0 -212 1024 1024"><path d="M520 -204 q-214 6 -357 148 q-141 142 -147 356 q6 214 147 356 q143 142 357 148 q213 -6 356 -148 q142 -142 148 -356 q-6 -214 -148 -356 q-143 -142 -356 -148 ZM520 728 q-184 -5 -304 -127 q-121 -121 -124 -301 q3 -180 124 -301 q120 -122 304 -127 q184 5 304 127 q120 121 124 301 q-4 184 -124 304 q-120 120 -304 124 ZM709 243 q50 35 25 88 q-8 18 -25 26 l-227 126 q-11 11 -31 12 q-12 -1 -32 -12 q-30 -20 -31 -57 l0 -258 q0 -38 37 -57 q11 -8 32 -6 q18 -2 37 6 l215 132 ZM463 420 l201 -120 l-201 -120 l0 240 Z"></path></symbol><symbol id="uniE011" viewBox="0 -212 1024 1024"><path d="M709 243 q17 8 25 25 q25 54 -25 89 l-221 126 q-34 19 -69 0 q-30 -20 -31 -57 l0 -258 q0 -38 37 -57 q11 -8 32 -6 q18 -2 37 6 l215 132 ZM520 -204 q-214 6 -357 148 q-141 142 -147 356 q6 214 147 356 q143 142 357 148 q213 -6 356 -148 q142 -142 148 -356 q-6 -214 -148 -356 q-143 -142 -356 -148 Z"></path></symbol><symbol id="uniE012" viewBox="0 -212 1024 1024"><path d="M337 495 l0 -378 l126 0 l0 378 l-126 0 ZM589 495 l0 -378 l126 0 l0 378 l-126 0 ZM520 -204 q-214 6 -357 148 q-141 142 -147 356 q6 214 147 356 q143 142 357 148 q213 -6 356 -148 q142 -142 148 -356 q-6 -214 -148 -356 q-143 -142 -356 -148 ZM520 728 q-184 -5 -304 -127 q-121 -121 -124 -301 q3 -180 124 -301 q120 -122 304 -127 q184 5 304 127 q120 121 124 301 q-4 184 -124 304 q-120 120 -304 124 ZM337 117 l126 0 l0 378 l-126 0 l0 -378 ZM589 117 l126 0 l0 378 l-126 0 l0 -378 Z"></path></symbol><symbol id="uniE013" viewBox="0 -212 1024 1024"><path d="M520 -204 q-214 6 -357 148 q-141 142 -147 356 q6 214 147 356 q143 142 357 148 q213 -6 356 -148 q142 -142 148 -356 q-6 -214 -148 -356 q-143 -142 -356 -148 ZM337 117 l126 0 l0 378 l-126 0 l0 -378 ZM589 117 l126 0 l0 378 l-126 0 l0 -378 Z"></path></symbol><symbol id="uniE014" viewBox="0 -212 1024 1024"><path d="M1209 803.94 q-131 -380 -534 -413 l-91 0 l0 232 q3 13 -10 10 q-5 3 -10 -10 l-545 -403 q-2 -5 10 -11 l545 -403 l10 -9 q13 -4 11 9 l0 232 l80 0 q248 22 407 194 q159 173 157 421 q-15 76 -30 151 Z"></path></symbol></defs></svg>